<svg xmlns="http://www.w3.org/2000/svg" xmlns:xlink="http://www.w3.org/1999/xlink" width="1080" zoomAndPan="magnify" viewBox="0 0 810 809.999993" height="1080" preserveAspectRatio="xMidYMid meet" version="1.0"><defs><clipPath id="c949b3589c"><path d="M 292.613281 219 L 810 219 L 810 810 L 292.613281 810 Z M 292.613281 219 " clip-rule="nonzero"/></clipPath><clipPath id="e227f51159"><path d="M 810 405 C 810 628.675781 628.675781 810 405 810 C 181.324219 810 0 628.675781 0 405 C 0 181.324219 181.324219 0 405 0 C 628.675781 0 810 181.324219 810 405 Z M 810 405 " clip-rule="nonzero"/></clipPath></defs><path fill="#cb6ce6" d="M 810 405 C 810 628.675781 628.675781 810 405 810 C 181.324219 810 0 628.675781 0 405 C 0 181.324219 181.324219 0 405 0 C 628.675781 0 810 181.324219 810 405 " fill-opacity="1" fill-rule="nonzero"/><g clip-path="url(#c949b3589c)"><g clip-path="url(#e227f51159)"><path fill="#ff66c4" d="M 990.234375 546.222656 L 663.285156 219.273438 L 292.84375 591.742188 L 589.433594 888.332031 L 990.234375 546.222656 " fill-opacity="1" fill-rule="nonzero"/></g></g><path fill="#ffffff" d="M 663.285156 219.273438 C 652.46875 208.457031 638.089844 202.5 622.789062 202.5 C 607.492188 202.5 593.109375 208.457031 582.289062 219.273438 L 332.375 469.1875 L 227.710938 364.519531 C 216.890625 353.703125 202.507812 347.746094 187.210938 347.746094 C 171.910156 347.746094 157.53125 353.703125 146.714844 364.519531 C 124.382812 386.851562 124.382812 423.183594 146.714844 445.515625 L 291.347656 590.144531 C 291.503906 590.316406 291.671875 590.488281 291.871094 590.691406 C 294.617188 593.4375 297.652344 595.910156 300.867188 598.03125 C 310.230469 604.226562 321.148438 607.5 332.421875 607.5 C 347.722656 607.5 362.101562 601.539062 372.910156 590.734375 C 373.4375 590.207031 651.453125 312.101562 663.285156 300.269531 C 674.101562 289.453125 680.058594 275.070312 680.058594 259.773438 C 680.058594 244.476562 674.101562 230.089844 663.285156 219.273438 " fill-opacity="1" fill-rule="nonzero"/></svg>